<svg xmlns="http://www.w3.org/2000/svg" viewBox="0 0 98.36 84.56">
  <title>black_white_cat</title>
  <g id="Layer_2" data-name="Layer 2">
    <g id="Layer_2-2" data-name="Layer 2">
      <path d="M90.45,30.47,89,35.58a32.62,32.62,0,0,1,1.89,11.23c0,20.57-19,37.25-42.33,37.25S6.24,67.38,6.24,46.81A33,33,0,0,1,8.92,33.76L.6,3.82A2.62,2.62,0,0,1,4.11.7L32.83,12.22A47.13,47.13,0,0,1,48.56,9.56a48,48,0,0,1,9.29.9,45.81,45.81,0,0,1,7.77,2.25l28.63-11a2.62,2.62,0,0,1,3.51,3.12Z" style="fill: none;stroke: #231f20;stroke-miterlimit: 10"/>
      <ellipse cx="26.26" cy="40.8" rx="9.98" ry="9.71" style="fill: none;stroke: #231f20;stroke-miterlimit: 10"/>
      <ellipse cx="69.39" cy="40.8" rx="9.98" ry="9.71" style="fill: none;stroke: #231f20;stroke-miterlimit: 10"/>
      <ellipse cx="27.57" cy="40.95" rx="8.42" ry="8.2" style="fill: #231f20"/>
      <ellipse cx="68.2" cy="40.95" rx="8.42" ry="8.2" style="fill: #231f20"/>
      <ellipse cx="34.21" cy="40.78" rx="2.13" ry="2.37" style="fill: #fff;stroke: #fff;stroke-miterlimit: 10"/>
      <ellipse cx="61.37" cy="41.01" rx="2.13" ry="2.37" style="fill: #fff;stroke: #fff;stroke-miterlimit: 10"/>
      <path d="M51.73,52.25l-3.18,5.51a.84.84,0,0,1-1.45,0l-3.18-5.51A.84.84,0,0,1,44.65,51H51A.84.84,0,0,1,51.73,52.25Z" style="fill: #231f20;stroke: #231f20;stroke-miterlimit: 10"/>
      <path d="M47.77,58.17V63s-3.42,6.68-5.56,3.11" style="fill: none;stroke: #231f20;stroke-miterlimit: 10"/>
      <path d="M47.77,58.17V63s3.36,6.68,5.5,3.11" style="fill: none;stroke: #231f20;stroke-miterlimit: 10"/>
      <line x1="61.19" y1="61.6" x2="81.95" y2="53.93" style="fill: none;stroke: #231f20;stroke-miterlimit: 10"/>
      <line x1="61.73" y1="64.72" x2="78.92" y2="64.72" style="fill: none;stroke: #231f20;stroke-miterlimit: 10"/>
      <line x1="61.82" y1="67.75" x2="71.62" y2="72.2" style="fill: none;stroke: #231f20;stroke-miterlimit: 10"/>
      <line x1="34.95" y1="61.6" x2="14.19" y2="53.93" style="fill: none;stroke: #231f20;stroke-miterlimit: 10"/>
      <line x1="34.42" y1="64.72" x2="17.22" y2="64.72" style="fill: none;stroke: #231f20;stroke-miterlimit: 10"/>
      <line x1="34.33" y1="67.75" x2="24.53" y2="72.2" style="fill: none;stroke: #231f20;stroke-miterlimit: 10"/>
      <path d="M90.45,30.47,89,35.58a32.62,32.62,0,0,1,1.89,11.23c0,20.57-19,37.25-42.33,37.25S6.24,67.38,6.24,46.81A33,33,0,0,1,8.92,33.76L.6,3.82A2.62,2.62,0,0,1,4.11.7L32.83,12.22A47.13,47.13,0,0,1,48.56,9.56a48,48,0,0,1,9.29.9,45.81,45.81,0,0,1,7.77,2.25l28.63-11a2.62,2.62,0,0,1,3.51,3.12Z" style="fill: #fff;stroke: #231f20;stroke-miterlimit: 10"/>
      <ellipse cx="26.26" cy="40.8" rx="9.98" ry="9.71" style="fill: #96c93d;stroke: #231f20;stroke-miterlimit: 10"/>
      <ellipse cx="69.39" cy="40.8" rx="9.98" ry="9.71" style="fill: #96c93d;stroke: #231f20;stroke-miterlimit: 10"/>
      <ellipse cx="27.57" cy="40.95" rx="8.42" ry="8.2" style="fill: #231f20"/>
      <ellipse cx="68.2" cy="40.95" rx="8.42" ry="8.2" style="fill: #231f20"/>
      <ellipse cx="34.21" cy="40.78" rx="2.13" ry="2.37" style="fill: #fff;stroke: #fff;stroke-miterlimit: 10"/>
      <ellipse cx="61.37" cy="41.01" rx="2.13" ry="2.37" style="fill: #fff;stroke: #fff;stroke-miterlimit: 10"/>
      <path d="M51.73,52.25l-3.18,5.51a.84.84,0,0,1-1.45,0l-3.18-5.51A.84.84,0,0,1,44.65,51H51A.84.84,0,0,1,51.73,52.25Z" style="fill: #231f20;stroke: #231f20;stroke-miterlimit: 10"/>
      <path d="M47.77,58.17V63s-3.42,6.68-5.56,3.11" style="fill: none;stroke: #231f20;stroke-miterlimit: 10"/>
      <path d="M47.77,58.17V63s3.36,6.68,5.5,3.11" style="fill: none;stroke: #231f20;stroke-miterlimit: 10"/>
      <line x1="61.19" y1="61.6" x2="81.95" y2="53.93" style="fill: none;stroke: #231f20;stroke-miterlimit: 10"/>
      <line x1="61.73" y1="64.72" x2="78.92" y2="64.72" style="fill: none;stroke: #231f20;stroke-miterlimit: 10"/>
      <line x1="61.82" y1="67.75" x2="71.62" y2="72.2" style="fill: none;stroke: #231f20;stroke-miterlimit: 10"/>
      <line x1="34.95" y1="61.6" x2="14.19" y2="53.93" style="fill: none;stroke: #231f20;stroke-miterlimit: 10"/>
      <line x1="34.42" y1="64.72" x2="17.22" y2="64.72" style="fill: none;stroke: #231f20;stroke-miterlimit: 10"/>
      <line x1="34.33" y1="67.75" x2="24.53" y2="72.2" style="fill: none;stroke: #231f20;stroke-miterlimit: 10"/>
      <path d="M97.76,4.82,90.45,30.47c-18.52-8.77-10.94-.71-20.7-4.57-4.07-1.61-8.29-8.15-11.9-15.44a45.81,45.81,0,0,1,7.77,2.25l28.63-11A2.62,2.62,0,0,1,97.76,4.82Z" style="fill: #080405;stroke: #231f20;stroke-miterlimit: 10"/>
    </g>
  </g>
</svg>
