<svg xmlns="http://www.w3.org/2000/svg" viewBox="0 0 98.36 84.56">
  <title>orange_cat</title>
  <g id="Layer_2" data-name="Layer 2">
    <g id="Layer_2-2" data-name="Layer 2">
      <path d="M89,35.58h0a32.62,32.62,0,0,1,1.89,11.23c0,20.57-19,37.25-42.33,37.25S6.24,67.38,6.24,46.81A33,33,0,0,1,8.92,33.76L.6,3.82A2.62,2.62,0,0,1,4.11.7L32.83,12.22a47.8,47.8,0,0,1,32.79.49l28.63-11a2.62,2.62,0,0,1,3.51,3.12Z" style="fill: none;stroke: #231f20;stroke-miterlimit: 10"/>
      <ellipse cx="26.27" cy="40.8" rx="9.98" ry="9.71" style="fill: none;stroke: #231f20;stroke-miterlimit: 10"/>
      <ellipse cx="69.39" cy="40.8" rx="9.98" ry="9.71" style="fill: none;stroke: #231f20;stroke-miterlimit: 10"/>
      <ellipse cx="27.58" cy="40.95" rx="8.42" ry="8.2" style="fill: #231f20"/>
      <ellipse cx="68.21" cy="40.95" rx="8.42" ry="8.2" style="fill: #231f20"/>
      <ellipse cx="34.21" cy="40.78" rx="2.13" ry="2.37" style="fill: #fff;stroke: #fff;stroke-miterlimit: 10"/>
      <ellipse cx="61.37" cy="41.01" rx="2.13" ry="2.37" style="fill: #fff;stroke: #fff;stroke-miterlimit: 10"/>
      <path d="M51.74,52.25l-3.18,5.51a.84.84,0,0,1-1.46,0l-3.17-5.51A.84.84,0,0,1,44.65,51H51A.84.84,0,0,1,51.74,52.25Z" style="fill: #231f20;stroke: #231f20;stroke-miterlimit: 10"/>
      <path d="M47.78,58.17V63s-3.42,6.68-5.55,3.11" style="fill: none;stroke: #231f20;stroke-miterlimit: 10"/>
      <path d="M47.78,58.17V63s3.37,6.68,5.51,3.11" style="fill: none;stroke: #231f20;stroke-miterlimit: 10"/>
      <line x1="61.2" y1="61.6" x2="81.96" y2="53.93" style="fill: none;stroke: #231f20;stroke-miterlimit: 10"/>
      <line x1="61.73" y1="64.72" x2="78.93" y2="64.72" style="fill: none;stroke: #231f20;stroke-miterlimit: 10"/>
      <line x1="61.82" y1="67.75" x2="71.62" y2="72.2" style="fill: none;stroke: #231f20;stroke-miterlimit: 10"/>
      <line x1="34.96" y1="61.6" x2="14.2" y2="53.93" style="fill: none;stroke: #231f20;stroke-miterlimit: 10"/>
      <line x1="34.42" y1="64.72" x2="17.23" y2="64.72" style="fill: none;stroke: #231f20;stroke-miterlimit: 10"/>
      <line x1="34.33" y1="67.75" x2="24.53" y2="72.2" style="fill: none;stroke: #231f20;stroke-miterlimit: 10"/>
      <path d="M89,35.58h0a32.62,32.62,0,0,1,1.89,11.23c0,20.57-19,37.25-42.33,37.25S6.24,67.38,6.24,46.81A33,33,0,0,1,8.92,33.76L.6,3.82A2.62,2.62,0,0,1,4.11.7L32.83,12.22a47.8,47.8,0,0,1,32.79.49l28.63-11a2.62,2.62,0,0,1,3.51,3.12Z" style="fill: #fcbb68;stroke: #231f20;stroke-miterlimit: 10"/>
      <ellipse cx="26.27" cy="40.8" rx="9.98" ry="9.71" style="fill: #49c6e4;stroke: #231f20;stroke-miterlimit: 10"/>
      <ellipse cx="69.39" cy="40.8" rx="9.98" ry="9.71" style="fill: #49c6e4;stroke: #231f20;stroke-miterlimit: 10"/>
      <ellipse cx="27.58" cy="40.95" rx="8.42" ry="8.2" style="fill: #231f20"/>
      <ellipse cx="68.21" cy="40.95" rx="8.42" ry="8.2" style="fill: #231f20"/>
      <ellipse cx="34.21" cy="40.78" rx="2.13" ry="2.37" style="fill: #fff;stroke: #fff;stroke-miterlimit: 10"/>
      <ellipse cx="61.37" cy="41.01" rx="2.13" ry="2.37" style="fill: #fff;stroke: #fff;stroke-miterlimit: 10"/>
      <path d="M51.74,52.25l-3.18,5.51a.84.84,0,0,1-1.46,0l-3.17-5.51A.84.84,0,0,1,44.65,51H51A.84.84,0,0,1,51.74,52.25Z" style="fill: #231f20;stroke: #231f20;stroke-miterlimit: 10"/>
      <path d="M47.78,58.17V63s-3.42,6.68-5.55,3.11" style="fill: none;stroke: #231f20;stroke-miterlimit: 10"/>
      <path d="M47.78,58.17V63s3.37,6.68,5.51,3.11" style="fill: none;stroke: #231f20;stroke-miterlimit: 10"/>
      <line x1="61.2" y1="61.6" x2="81.96" y2="53.93" style="fill: none;stroke: #231f20;stroke-miterlimit: 10"/>
      <line x1="61.73" y1="64.72" x2="78.93" y2="64.72" style="fill: none;stroke: #231f20;stroke-miterlimit: 10"/>
      <line x1="61.82" y1="67.75" x2="71.62" y2="72.2" style="fill: none;stroke: #231f20;stroke-miterlimit: 10"/>
      <line x1="34.96" y1="61.6" x2="14.2" y2="53.93" style="fill: none;stroke: #231f20;stroke-miterlimit: 10"/>
      <line x1="34.42" y1="64.72" x2="17.23" y2="64.72" style="fill: none;stroke: #231f20;stroke-miterlimit: 10"/>
      <line x1="34.33" y1="67.75" x2="24.53" y2="72.2" style="fill: none;stroke: #231f20;stroke-miterlimit: 10"/>
    </g>
  </g>
</svg>
