<?xml version="1.0" encoding="utf-8"?>
<!-- Generator: Adobe Illustrator 23.0.2, SVG Export Plug-In . SVG Version: 6.00 Build 0)  -->
<svg version="1.1" id="Layer_1" xmlns="http://www.w3.org/2000/svg" xmlns:xlink="http://www.w3.org/1999/xlink" x="0px" y="0px"
	 viewBox="0 0 98.4 84.6" style="enable-background:new 0 0 98.4 84.6;" xml:space="preserve">
<style type="text/css">
	.st0{fill:#FFFFFF;stroke:#231F20;stroke-miterlimit:10;}
	.st1{fill:#F4753D;}
	.st2{fill:none;stroke:#231F20;stroke-miterlimit:10;}
	.st3{fill:#231F20;}
	.st4{fill:#FFFFFF;stroke:#FFFFFF;stroke-miterlimit:10;}
	.st5{fill:#231F20;stroke:#231F20;stroke-miterlimit:10;}
	.st6{fill:#24B34B;stroke:#231F20;stroke-miterlimit:10;}
</style>
<path class="st0" d="M97.8,4.8L89,35.6c1.3,3.6,1.9,7.4,1.9,11.2c0,12.4-6.9,23.4-17.6,30.2c-7,4.4-15.5,7.1-24.8,7.1
	c-23.3,0-42.3-16.7-42.3-37.3c0-4.5,0.9-8.9,2.7-13L0.6,3.8C0.2,2.4,1,1,2.4,0.6C3,0.5,3.6,0.5,4.1,0.7l28.7,11.5
	c0.8-0.3,1.5-0.5,2.3-0.7c4-1.2,8.2-1.8,12.4-1.9h3c4.2,0.2,8.3,0.9,12.3,2.1c0.9,0.3,1.9,0.6,2.8,1l28.6-11c1.3-0.6,2.9,0,3.4,1.4
	C97.9,3.6,97.9,4.2,97.8,4.8z"/>
<title>white_orange_cat</title>
<path class="st1" d="M97.8,4.8L89,35.6c1.3,3.6,1.9,7.4,1.9,11.2c0,12.4-6.9,23.4-17.6,30.2c-2.8,0.3-5.1,0.4-6.6,0.2
	C56.7,75.8,56,56.5,56,49.6S40.6,29,40.3,22.5c-0.1-3.6,4.9-9,9.4-13h0.8c4.2,0.2,8.3,0.9,12.3,2.1c0.9,0.3,1.9,0.6,2.8,1l28.6-11
	c1.3-0.6,2.9,0,3.4,1.4C97.9,3.6,97.9,4.2,97.8,4.8z"/>
<g>
	<g id="Layer_2-2">
		<path class="st2" d="M97.8,4.8L89,35.6c1.3,3.6,1.9,7.4,1.9,11.2c0,12.4-6.9,23.4-17.6,30.2c-7,4.4-15.5,7.1-24.8,7.1
			c-23.3,0-42.3-16.7-42.3-37.3c0-4.5,0.9-8.9,2.7-13L0.6,3.8C0.2,2.4,1,1,2.4,0.6C3,0.5,3.6,0.5,4.1,0.7l28.7,11.5
			c0.8-0.3,1.5-0.5,2.3-0.7c4-1.2,8.2-1.8,12.4-1.9h3c4.2,0.2,8.3,0.9,12.3,2.1c0.9,0.3,1.9,0.6,2.8,1l28.6-11
			c1.3-0.6,2.9,0,3.4,1.4C97.9,3.6,97.9,4.2,97.8,4.8z"/>
		<ellipse class="st2" cx="26.3" cy="40.8" rx="10" ry="9.7"/>
		<ellipse class="st2" cx="69.4" cy="40.8" rx="10" ry="9.7"/>
		<ellipse class="st3" cx="27.6" cy="40.9" rx="8.4" ry="8.2"/>
		<ellipse class="st3" cx="68.2" cy="40.9" rx="8.4" ry="8.2"/>
		<ellipse class="st4" cx="34.2" cy="40.8" rx="2.1" ry="2.4"/>
		<ellipse class="st4" cx="61.4" cy="41" rx="2.1" ry="2.4"/>
		<path class="st5" d="M51.7,52.2l-3.2,5.5c-0.2,0.4-0.7,0.5-1.1,0.3c-0.1-0.1-0.2-0.2-0.3-0.3l-3.2-5.5c-0.2-0.4-0.1-0.9,0.3-1.1
			c0.1-0.1,0.3-0.1,0.4-0.1H51c0.5,0,0.8,0.4,0.8,0.8C51.8,52,51.8,52.1,51.7,52.2z"/>
		<path class="st2" d="M47.8,58.2V63c0,0-3.4,6.7-5.5,3.1"/>
		<path class="st2" d="M47.8,58.2V63c0,0,3.4,6.7,5.5,3.1"/>
		<line class="st2" x1="61.2" y1="61.6" x2="82" y2="53.9"/>
		<line class="st2" x1="61.7" y1="64.7" x2="78.9" y2="64.7"/>
		<line class="st2" x1="61.8" y1="67.7" x2="71.6" y2="72.2"/>
		<line class="st2" x1="35" y1="61.6" x2="14.2" y2="53.9"/>
		<line class="st2" x1="34.4" y1="64.7" x2="17.2" y2="64.7"/>
		<line class="st2" x1="34.3" y1="67.7" x2="24.5" y2="72.2"/>
		<path class="st2" d="M97.8,4.8L89,35.6c1.3,3.6,1.9,7.4,1.9,11.2c0,12.4-6.9,23.4-17.6,30.2c-7,4.4-15.5,7.1-24.8,7.1
			c-23.3,0-42.3-16.7-42.3-37.3c0-4.5,0.9-8.9,2.7-13L0.6,3.8C0.2,2.4,1,1,2.4,0.6C3,0.5,3.6,0.5,4.1,0.7l28.7,11.5
			c0.8-0.3,1.5-0.5,2.3-0.7c4-1.2,8.2-1.8,12.4-1.9h3c4.2,0.2,8.3,0.9,12.3,2.1c0.9,0.3,1.9,0.6,2.8,1l28.6-11
			c1.3-0.6,2.9,0,3.4,1.4C97.9,3.6,97.9,4.2,97.8,4.8z"/>
		<ellipse class="st6" cx="26.3" cy="40.8" rx="10" ry="9.7"/>
		<ellipse class="st6" cx="69.4" cy="40.8" rx="10" ry="9.7"/>
		<ellipse class="st3" cx="27.6" cy="40.9" rx="8.4" ry="8.2"/>
		<ellipse class="st3" cx="68.2" cy="40.9" rx="8.4" ry="8.2"/>
		<ellipse class="st4" cx="34.2" cy="40.8" rx="2.1" ry="2.4"/>
		<ellipse class="st4" cx="61.4" cy="41" rx="2.1" ry="2.4"/>
		<path class="st5" d="M51.7,52.2l-3.2,5.5c-0.2,0.4-0.7,0.5-1.1,0.3c-0.1-0.1-0.2-0.2-0.3-0.3l-3.2-5.5c-0.2-0.4-0.1-0.9,0.3-1.1
			c0.1-0.1,0.3-0.1,0.4-0.1H51c0.5,0,0.8,0.4,0.8,0.8C51.8,52,51.8,52.1,51.7,52.2z"/>
		<path class="st2" d="M47.8,58.2V63c0,0-3.4,6.7-5.5,3.1"/>
		<path class="st2" d="M47.8,58.2V63c0,0,3.4,6.7,5.5,3.1"/>
		<line class="st2" x1="61.2" y1="61.6" x2="82" y2="53.9"/>
		<line class="st2" x1="61.7" y1="64.7" x2="78.9" y2="64.7"/>
		<line class="st2" x1="61.8" y1="67.7" x2="71.6" y2="72.2"/>
		<line class="st2" x1="35" y1="61.6" x2="14.2" y2="53.9"/>
		<line class="st2" x1="34.4" y1="64.7" x2="17.2" y2="64.7"/>
		<line class="st2" x1="34.3" y1="67.7" x2="24.5" y2="72.2"/>
	</g>
</g>
</svg>
